%TF.GenerationSoftware,KiCad,Pcbnew,9.0.6*%
%TF.CreationDate,2025-12-12T15:58:06+01:00*%
%TF.ProjectId,nsm4202A_MAN3910,6e736d34-3230-4324-915f-4d414e333931,rev?*%
%TF.SameCoordinates,Original*%
%TF.FileFunction,Legend,Bot*%
%TF.FilePolarity,Positive*%
%FSLAX46Y46*%
G04 Gerber Fmt 4.6, Leading zero omitted, Abs format (unit mm)*
G04 Created by KiCad (PCBNEW 9.0.6) date 2025-12-12 15:58:06*
%MOMM*%
%LPD*%
G01*
G04 APERTURE LIST*
%ADD10C,0.254000*%
%ADD11C,0.150000*%
%ADD12C,0.120000*%
%ADD13C,0.250000*%
G04 APERTURE END LIST*
D10*
X137132143Y-80094718D02*
X137132143Y-78824718D01*
X137132143Y-78824718D02*
X136829762Y-78824718D01*
X136829762Y-78824718D02*
X136648333Y-78885194D01*
X136648333Y-78885194D02*
X136527381Y-79006146D01*
X136527381Y-79006146D02*
X136466904Y-79127099D01*
X136466904Y-79127099D02*
X136406428Y-79369003D01*
X136406428Y-79369003D02*
X136406428Y-79550432D01*
X136406428Y-79550432D02*
X136466904Y-79792337D01*
X136466904Y-79792337D02*
X136527381Y-79913289D01*
X136527381Y-79913289D02*
X136648333Y-80034242D01*
X136648333Y-80034242D02*
X136829762Y-80094718D01*
X136829762Y-80094718D02*
X137132143Y-80094718D01*
X135922619Y-80034242D02*
X135741190Y-80094718D01*
X135741190Y-80094718D02*
X135438809Y-80094718D01*
X135438809Y-80094718D02*
X135317857Y-80034242D01*
X135317857Y-80034242D02*
X135257381Y-79973765D01*
X135257381Y-79973765D02*
X135196904Y-79852813D01*
X135196904Y-79852813D02*
X135196904Y-79731861D01*
X135196904Y-79731861D02*
X135257381Y-79610908D01*
X135257381Y-79610908D02*
X135317857Y-79550432D01*
X135317857Y-79550432D02*
X135438809Y-79489956D01*
X135438809Y-79489956D02*
X135680714Y-79429480D01*
X135680714Y-79429480D02*
X135801666Y-79369003D01*
X135801666Y-79369003D02*
X135862143Y-79308527D01*
X135862143Y-79308527D02*
X135922619Y-79187575D01*
X135922619Y-79187575D02*
X135922619Y-79066622D01*
X135922619Y-79066622D02*
X135862143Y-78945670D01*
X135862143Y-78945670D02*
X135801666Y-78885194D01*
X135801666Y-78885194D02*
X135680714Y-78824718D01*
X135680714Y-78824718D02*
X135378333Y-78824718D01*
X135378333Y-78824718D02*
X135196904Y-78885194D01*
X134108333Y-79248051D02*
X134108333Y-80094718D01*
X134410714Y-78764242D02*
X134713095Y-79671384D01*
X134713095Y-79671384D02*
X133926904Y-79671384D01*
X107022143Y-80124318D02*
X107022143Y-78854318D01*
X107022143Y-78854318D02*
X106719762Y-78854318D01*
X106719762Y-78854318D02*
X106538333Y-78914794D01*
X106538333Y-78914794D02*
X106417381Y-79035746D01*
X106417381Y-79035746D02*
X106356904Y-79156699D01*
X106356904Y-79156699D02*
X106296428Y-79398603D01*
X106296428Y-79398603D02*
X106296428Y-79580032D01*
X106296428Y-79580032D02*
X106356904Y-79821937D01*
X106356904Y-79821937D02*
X106417381Y-79942889D01*
X106417381Y-79942889D02*
X106538333Y-80063842D01*
X106538333Y-80063842D02*
X106719762Y-80124318D01*
X106719762Y-80124318D02*
X107022143Y-80124318D01*
X105812619Y-80063842D02*
X105631190Y-80124318D01*
X105631190Y-80124318D02*
X105328809Y-80124318D01*
X105328809Y-80124318D02*
X105207857Y-80063842D01*
X105207857Y-80063842D02*
X105147381Y-80003365D01*
X105147381Y-80003365D02*
X105086904Y-79882413D01*
X105086904Y-79882413D02*
X105086904Y-79761461D01*
X105086904Y-79761461D02*
X105147381Y-79640508D01*
X105147381Y-79640508D02*
X105207857Y-79580032D01*
X105207857Y-79580032D02*
X105328809Y-79519556D01*
X105328809Y-79519556D02*
X105570714Y-79459080D01*
X105570714Y-79459080D02*
X105691666Y-79398603D01*
X105691666Y-79398603D02*
X105752143Y-79338127D01*
X105752143Y-79338127D02*
X105812619Y-79217175D01*
X105812619Y-79217175D02*
X105812619Y-79096222D01*
X105812619Y-79096222D02*
X105752143Y-78975270D01*
X105752143Y-78975270D02*
X105691666Y-78914794D01*
X105691666Y-78914794D02*
X105570714Y-78854318D01*
X105570714Y-78854318D02*
X105268333Y-78854318D01*
X105268333Y-78854318D02*
X105086904Y-78914794D01*
X103877380Y-80124318D02*
X104603095Y-80124318D01*
X104240238Y-80124318D02*
X104240238Y-78854318D01*
X104240238Y-78854318D02*
X104361190Y-79035746D01*
X104361190Y-79035746D02*
X104482142Y-79156699D01*
X104482142Y-79156699D02*
X104603095Y-79217175D01*
X116732143Y-80144718D02*
X116732143Y-78874718D01*
X116732143Y-78874718D02*
X116429762Y-78874718D01*
X116429762Y-78874718D02*
X116248333Y-78935194D01*
X116248333Y-78935194D02*
X116127381Y-79056146D01*
X116127381Y-79056146D02*
X116066904Y-79177099D01*
X116066904Y-79177099D02*
X116006428Y-79419003D01*
X116006428Y-79419003D02*
X116006428Y-79600432D01*
X116006428Y-79600432D02*
X116066904Y-79842337D01*
X116066904Y-79842337D02*
X116127381Y-79963289D01*
X116127381Y-79963289D02*
X116248333Y-80084242D01*
X116248333Y-80084242D02*
X116429762Y-80144718D01*
X116429762Y-80144718D02*
X116732143Y-80144718D01*
X115522619Y-80084242D02*
X115341190Y-80144718D01*
X115341190Y-80144718D02*
X115038809Y-80144718D01*
X115038809Y-80144718D02*
X114917857Y-80084242D01*
X114917857Y-80084242D02*
X114857381Y-80023765D01*
X114857381Y-80023765D02*
X114796904Y-79902813D01*
X114796904Y-79902813D02*
X114796904Y-79781861D01*
X114796904Y-79781861D02*
X114857381Y-79660908D01*
X114857381Y-79660908D02*
X114917857Y-79600432D01*
X114917857Y-79600432D02*
X115038809Y-79539956D01*
X115038809Y-79539956D02*
X115280714Y-79479480D01*
X115280714Y-79479480D02*
X115401666Y-79419003D01*
X115401666Y-79419003D02*
X115462143Y-79358527D01*
X115462143Y-79358527D02*
X115522619Y-79237575D01*
X115522619Y-79237575D02*
X115522619Y-79116622D01*
X115522619Y-79116622D02*
X115462143Y-78995670D01*
X115462143Y-78995670D02*
X115401666Y-78935194D01*
X115401666Y-78935194D02*
X115280714Y-78874718D01*
X115280714Y-78874718D02*
X114978333Y-78874718D01*
X114978333Y-78874718D02*
X114796904Y-78935194D01*
X114313095Y-78995670D02*
X114252619Y-78935194D01*
X114252619Y-78935194D02*
X114131666Y-78874718D01*
X114131666Y-78874718D02*
X113829285Y-78874718D01*
X113829285Y-78874718D02*
X113708333Y-78935194D01*
X113708333Y-78935194D02*
X113647857Y-78995670D01*
X113647857Y-78995670D02*
X113587380Y-79116622D01*
X113587380Y-79116622D02*
X113587380Y-79237575D01*
X113587380Y-79237575D02*
X113647857Y-79419003D01*
X113647857Y-79419003D02*
X114373571Y-80144718D01*
X114373571Y-80144718D02*
X113587380Y-80144718D01*
X126732143Y-80145118D02*
X126732143Y-78875118D01*
X126732143Y-78875118D02*
X126429762Y-78875118D01*
X126429762Y-78875118D02*
X126248333Y-78935594D01*
X126248333Y-78935594D02*
X126127381Y-79056546D01*
X126127381Y-79056546D02*
X126066904Y-79177499D01*
X126066904Y-79177499D02*
X126006428Y-79419403D01*
X126006428Y-79419403D02*
X126006428Y-79600832D01*
X126006428Y-79600832D02*
X126066904Y-79842737D01*
X126066904Y-79842737D02*
X126127381Y-79963689D01*
X126127381Y-79963689D02*
X126248333Y-80084642D01*
X126248333Y-80084642D02*
X126429762Y-80145118D01*
X126429762Y-80145118D02*
X126732143Y-80145118D01*
X125522619Y-80084642D02*
X125341190Y-80145118D01*
X125341190Y-80145118D02*
X125038809Y-80145118D01*
X125038809Y-80145118D02*
X124917857Y-80084642D01*
X124917857Y-80084642D02*
X124857381Y-80024165D01*
X124857381Y-80024165D02*
X124796904Y-79903213D01*
X124796904Y-79903213D02*
X124796904Y-79782261D01*
X124796904Y-79782261D02*
X124857381Y-79661308D01*
X124857381Y-79661308D02*
X124917857Y-79600832D01*
X124917857Y-79600832D02*
X125038809Y-79540356D01*
X125038809Y-79540356D02*
X125280714Y-79479880D01*
X125280714Y-79479880D02*
X125401666Y-79419403D01*
X125401666Y-79419403D02*
X125462143Y-79358927D01*
X125462143Y-79358927D02*
X125522619Y-79237975D01*
X125522619Y-79237975D02*
X125522619Y-79117022D01*
X125522619Y-79117022D02*
X125462143Y-78996070D01*
X125462143Y-78996070D02*
X125401666Y-78935594D01*
X125401666Y-78935594D02*
X125280714Y-78875118D01*
X125280714Y-78875118D02*
X124978333Y-78875118D01*
X124978333Y-78875118D02*
X124796904Y-78935594D01*
X124373571Y-78875118D02*
X123587380Y-78875118D01*
X123587380Y-78875118D02*
X124010714Y-79358927D01*
X124010714Y-79358927D02*
X123829285Y-79358927D01*
X123829285Y-79358927D02*
X123708333Y-79419403D01*
X123708333Y-79419403D02*
X123647857Y-79479880D01*
X123647857Y-79479880D02*
X123587380Y-79600832D01*
X123587380Y-79600832D02*
X123587380Y-79903213D01*
X123587380Y-79903213D02*
X123647857Y-80024165D01*
X123647857Y-80024165D02*
X123708333Y-80084642D01*
X123708333Y-80084642D02*
X123829285Y-80145118D01*
X123829285Y-80145118D02*
X124192142Y-80145118D01*
X124192142Y-80145118D02*
X124313095Y-80084642D01*
X124313095Y-80084642D02*
X124373571Y-80024165D01*
D11*
X109036666Y-96949580D02*
X109084285Y-96997200D01*
X109084285Y-96997200D02*
X109227142Y-97044819D01*
X109227142Y-97044819D02*
X109322380Y-97044819D01*
X109322380Y-97044819D02*
X109465237Y-96997200D01*
X109465237Y-96997200D02*
X109560475Y-96901961D01*
X109560475Y-96901961D02*
X109608094Y-96806723D01*
X109608094Y-96806723D02*
X109655713Y-96616247D01*
X109655713Y-96616247D02*
X109655713Y-96473390D01*
X109655713Y-96473390D02*
X109608094Y-96282914D01*
X109608094Y-96282914D02*
X109560475Y-96187676D01*
X109560475Y-96187676D02*
X109465237Y-96092438D01*
X109465237Y-96092438D02*
X109322380Y-96044819D01*
X109322380Y-96044819D02*
X109227142Y-96044819D01*
X109227142Y-96044819D02*
X109084285Y-96092438D01*
X109084285Y-96092438D02*
X109036666Y-96140057D01*
X108084285Y-97044819D02*
X108655713Y-97044819D01*
X108369999Y-97044819D02*
X108369999Y-96044819D01*
X108369999Y-96044819D02*
X108465237Y-96187676D01*
X108465237Y-96187676D02*
X108560475Y-96282914D01*
X108560475Y-96282914D02*
X108655713Y-96330533D01*
X136589580Y-87233333D02*
X136637200Y-87185714D01*
X136637200Y-87185714D02*
X136684819Y-87042857D01*
X136684819Y-87042857D02*
X136684819Y-86947619D01*
X136684819Y-86947619D02*
X136637200Y-86804762D01*
X136637200Y-86804762D02*
X136541961Y-86709524D01*
X136541961Y-86709524D02*
X136446723Y-86661905D01*
X136446723Y-86661905D02*
X136256247Y-86614286D01*
X136256247Y-86614286D02*
X136113390Y-86614286D01*
X136113390Y-86614286D02*
X135922914Y-86661905D01*
X135922914Y-86661905D02*
X135827676Y-86709524D01*
X135827676Y-86709524D02*
X135732438Y-86804762D01*
X135732438Y-86804762D02*
X135684819Y-86947619D01*
X135684819Y-86947619D02*
X135684819Y-87042857D01*
X135684819Y-87042857D02*
X135732438Y-87185714D01*
X135732438Y-87185714D02*
X135780057Y-87233333D01*
X136018152Y-88090476D02*
X136684819Y-88090476D01*
X135637200Y-87852381D02*
X136351485Y-87614286D01*
X136351485Y-87614286D02*
X136351485Y-88233333D01*
D10*
X116429762Y-84834318D02*
X116429762Y-83564318D01*
X115099285Y-84713365D02*
X115159761Y-84773842D01*
X115159761Y-84773842D02*
X115341190Y-84834318D01*
X115341190Y-84834318D02*
X115462142Y-84834318D01*
X115462142Y-84834318D02*
X115643571Y-84773842D01*
X115643571Y-84773842D02*
X115764523Y-84652889D01*
X115764523Y-84652889D02*
X115825000Y-84531937D01*
X115825000Y-84531937D02*
X115885476Y-84290032D01*
X115885476Y-84290032D02*
X115885476Y-84108603D01*
X115885476Y-84108603D02*
X115825000Y-83866699D01*
X115825000Y-83866699D02*
X115764523Y-83745746D01*
X115764523Y-83745746D02*
X115643571Y-83624794D01*
X115643571Y-83624794D02*
X115462142Y-83564318D01*
X115462142Y-83564318D02*
X115341190Y-83564318D01*
X115341190Y-83564318D02*
X115159761Y-83624794D01*
X115159761Y-83624794D02*
X115099285Y-83685270D01*
X113889761Y-84834318D02*
X114615476Y-84834318D01*
X114252619Y-84834318D02*
X114252619Y-83564318D01*
X114252619Y-83564318D02*
X114373571Y-83745746D01*
X114373571Y-83745746D02*
X114494523Y-83866699D01*
X114494523Y-83866699D02*
X114615476Y-83927175D01*
D11*
X133024819Y-90745833D02*
X132548628Y-90412500D01*
X133024819Y-90174405D02*
X132024819Y-90174405D01*
X132024819Y-90174405D02*
X132024819Y-90555357D01*
X132024819Y-90555357D02*
X132072438Y-90650595D01*
X132072438Y-90650595D02*
X132120057Y-90698214D01*
X132120057Y-90698214D02*
X132215295Y-90745833D01*
X132215295Y-90745833D02*
X132358152Y-90745833D01*
X132358152Y-90745833D02*
X132453390Y-90698214D01*
X132453390Y-90698214D02*
X132501009Y-90650595D01*
X132501009Y-90650595D02*
X132548628Y-90555357D01*
X132548628Y-90555357D02*
X132548628Y-90174405D01*
X132120057Y-91126786D02*
X132072438Y-91174405D01*
X132072438Y-91174405D02*
X132024819Y-91269643D01*
X132024819Y-91269643D02*
X132024819Y-91507738D01*
X132024819Y-91507738D02*
X132072438Y-91602976D01*
X132072438Y-91602976D02*
X132120057Y-91650595D01*
X132120057Y-91650595D02*
X132215295Y-91698214D01*
X132215295Y-91698214D02*
X132310533Y-91698214D01*
X132310533Y-91698214D02*
X132453390Y-91650595D01*
X132453390Y-91650595D02*
X133024819Y-91079167D01*
X133024819Y-91079167D02*
X133024819Y-91698214D01*
D10*
X126499762Y-84654318D02*
X126499762Y-83384318D01*
X125169285Y-84533365D02*
X125229761Y-84593842D01*
X125229761Y-84593842D02*
X125411190Y-84654318D01*
X125411190Y-84654318D02*
X125532142Y-84654318D01*
X125532142Y-84654318D02*
X125713571Y-84593842D01*
X125713571Y-84593842D02*
X125834523Y-84472889D01*
X125834523Y-84472889D02*
X125895000Y-84351937D01*
X125895000Y-84351937D02*
X125955476Y-84110032D01*
X125955476Y-84110032D02*
X125955476Y-83928603D01*
X125955476Y-83928603D02*
X125895000Y-83686699D01*
X125895000Y-83686699D02*
X125834523Y-83565746D01*
X125834523Y-83565746D02*
X125713571Y-83444794D01*
X125713571Y-83444794D02*
X125532142Y-83384318D01*
X125532142Y-83384318D02*
X125411190Y-83384318D01*
X125411190Y-83384318D02*
X125229761Y-83444794D01*
X125229761Y-83444794D02*
X125169285Y-83505270D01*
X124685476Y-83505270D02*
X124625000Y-83444794D01*
X124625000Y-83444794D02*
X124504047Y-83384318D01*
X124504047Y-83384318D02*
X124201666Y-83384318D01*
X124201666Y-83384318D02*
X124080714Y-83444794D01*
X124080714Y-83444794D02*
X124020238Y-83505270D01*
X124020238Y-83505270D02*
X123959761Y-83626222D01*
X123959761Y-83626222D02*
X123959761Y-83747175D01*
X123959761Y-83747175D02*
X124020238Y-83928603D01*
X124020238Y-83928603D02*
X124745952Y-84654318D01*
X124745952Y-84654318D02*
X123959761Y-84654318D01*
D11*
X129876666Y-96919580D02*
X129924285Y-96967200D01*
X129924285Y-96967200D02*
X130067142Y-97014819D01*
X130067142Y-97014819D02*
X130162380Y-97014819D01*
X130162380Y-97014819D02*
X130305237Y-96967200D01*
X130305237Y-96967200D02*
X130400475Y-96871961D01*
X130400475Y-96871961D02*
X130448094Y-96776723D01*
X130448094Y-96776723D02*
X130495713Y-96586247D01*
X130495713Y-96586247D02*
X130495713Y-96443390D01*
X130495713Y-96443390D02*
X130448094Y-96252914D01*
X130448094Y-96252914D02*
X130400475Y-96157676D01*
X130400475Y-96157676D02*
X130305237Y-96062438D01*
X130305237Y-96062438D02*
X130162380Y-96014819D01*
X130162380Y-96014819D02*
X130067142Y-96014819D01*
X130067142Y-96014819D02*
X129924285Y-96062438D01*
X129924285Y-96062438D02*
X129876666Y-96110057D01*
X129305237Y-96443390D02*
X129400475Y-96395771D01*
X129400475Y-96395771D02*
X129448094Y-96348152D01*
X129448094Y-96348152D02*
X129495713Y-96252914D01*
X129495713Y-96252914D02*
X129495713Y-96205295D01*
X129495713Y-96205295D02*
X129448094Y-96110057D01*
X129448094Y-96110057D02*
X129400475Y-96062438D01*
X129400475Y-96062438D02*
X129305237Y-96014819D01*
X129305237Y-96014819D02*
X129114761Y-96014819D01*
X129114761Y-96014819D02*
X129019523Y-96062438D01*
X129019523Y-96062438D02*
X128971904Y-96110057D01*
X128971904Y-96110057D02*
X128924285Y-96205295D01*
X128924285Y-96205295D02*
X128924285Y-96252914D01*
X128924285Y-96252914D02*
X128971904Y-96348152D01*
X128971904Y-96348152D02*
X129019523Y-96395771D01*
X129019523Y-96395771D02*
X129114761Y-96443390D01*
X129114761Y-96443390D02*
X129305237Y-96443390D01*
X129305237Y-96443390D02*
X129400475Y-96491009D01*
X129400475Y-96491009D02*
X129448094Y-96538628D01*
X129448094Y-96538628D02*
X129495713Y-96633866D01*
X129495713Y-96633866D02*
X129495713Y-96824342D01*
X129495713Y-96824342D02*
X129448094Y-96919580D01*
X129448094Y-96919580D02*
X129400475Y-96967200D01*
X129400475Y-96967200D02*
X129305237Y-97014819D01*
X129305237Y-97014819D02*
X129114761Y-97014819D01*
X129114761Y-97014819D02*
X129019523Y-96967200D01*
X129019523Y-96967200D02*
X128971904Y-96919580D01*
X128971904Y-96919580D02*
X128924285Y-96824342D01*
X128924285Y-96824342D02*
X128924285Y-96633866D01*
X128924285Y-96633866D02*
X128971904Y-96538628D01*
X128971904Y-96538628D02*
X129019523Y-96491009D01*
X129019523Y-96491009D02*
X129114761Y-96443390D01*
X137724819Y-90763333D02*
X137248628Y-90430000D01*
X137724819Y-90191905D02*
X136724819Y-90191905D01*
X136724819Y-90191905D02*
X136724819Y-90572857D01*
X136724819Y-90572857D02*
X136772438Y-90668095D01*
X136772438Y-90668095D02*
X136820057Y-90715714D01*
X136820057Y-90715714D02*
X136915295Y-90763333D01*
X136915295Y-90763333D02*
X137058152Y-90763333D01*
X137058152Y-90763333D02*
X137153390Y-90715714D01*
X137153390Y-90715714D02*
X137201009Y-90668095D01*
X137201009Y-90668095D02*
X137248628Y-90572857D01*
X137248628Y-90572857D02*
X137248628Y-90191905D01*
X137724819Y-91715714D02*
X137724819Y-91144286D01*
X137724819Y-91430000D02*
X136724819Y-91430000D01*
X136724819Y-91430000D02*
X136867676Y-91334762D01*
X136867676Y-91334762D02*
X136962914Y-91239524D01*
X136962914Y-91239524D02*
X137010533Y-91144286D01*
X116269580Y-94123333D02*
X116317200Y-94075714D01*
X116317200Y-94075714D02*
X116364819Y-93932857D01*
X116364819Y-93932857D02*
X116364819Y-93837619D01*
X116364819Y-93837619D02*
X116317200Y-93694762D01*
X116317200Y-93694762D02*
X116221961Y-93599524D01*
X116221961Y-93599524D02*
X116126723Y-93551905D01*
X116126723Y-93551905D02*
X115936247Y-93504286D01*
X115936247Y-93504286D02*
X115793390Y-93504286D01*
X115793390Y-93504286D02*
X115602914Y-93551905D01*
X115602914Y-93551905D02*
X115507676Y-93599524D01*
X115507676Y-93599524D02*
X115412438Y-93694762D01*
X115412438Y-93694762D02*
X115364819Y-93837619D01*
X115364819Y-93837619D02*
X115364819Y-93932857D01*
X115364819Y-93932857D02*
X115412438Y-94075714D01*
X115412438Y-94075714D02*
X115460057Y-94123333D01*
X115364819Y-94456667D02*
X115364819Y-95075714D01*
X115364819Y-95075714D02*
X115745771Y-94742381D01*
X115745771Y-94742381D02*
X115745771Y-94885238D01*
X115745771Y-94885238D02*
X115793390Y-94980476D01*
X115793390Y-94980476D02*
X115841009Y-95028095D01*
X115841009Y-95028095D02*
X115936247Y-95075714D01*
X115936247Y-95075714D02*
X116174342Y-95075714D01*
X116174342Y-95075714D02*
X116269580Y-95028095D01*
X116269580Y-95028095D02*
X116317200Y-94980476D01*
X116317200Y-94980476D02*
X116364819Y-94885238D01*
X116364819Y-94885238D02*
X116364819Y-94599524D01*
X116364819Y-94599524D02*
X116317200Y-94504286D01*
X116317200Y-94504286D02*
X116269580Y-94456667D01*
X126369580Y-93543333D02*
X126417200Y-93495714D01*
X126417200Y-93495714D02*
X126464819Y-93352857D01*
X126464819Y-93352857D02*
X126464819Y-93257619D01*
X126464819Y-93257619D02*
X126417200Y-93114762D01*
X126417200Y-93114762D02*
X126321961Y-93019524D01*
X126321961Y-93019524D02*
X126226723Y-92971905D01*
X126226723Y-92971905D02*
X126036247Y-92924286D01*
X126036247Y-92924286D02*
X125893390Y-92924286D01*
X125893390Y-92924286D02*
X125702914Y-92971905D01*
X125702914Y-92971905D02*
X125607676Y-93019524D01*
X125607676Y-93019524D02*
X125512438Y-93114762D01*
X125512438Y-93114762D02*
X125464819Y-93257619D01*
X125464819Y-93257619D02*
X125464819Y-93352857D01*
X125464819Y-93352857D02*
X125512438Y-93495714D01*
X125512438Y-93495714D02*
X125560057Y-93543333D01*
X125464819Y-93876667D02*
X125464819Y-94543333D01*
X125464819Y-94543333D02*
X126464819Y-94114762D01*
D12*
%TO.C,C1*%
X111746267Y-96090000D02*
X111453733Y-96090000D01*
X111746267Y-97110000D02*
X111453733Y-97110000D01*
%TO.C,C4*%
X134290000Y-87546267D02*
X134290000Y-87253733D01*
X135310000Y-87546267D02*
X135310000Y-87253733D01*
D13*
%TO.C,IC1*%
X117755000Y-86600400D02*
G75*
G02*
X117505000Y-86600400I-125000J0D01*
G01*
X117505000Y-86600400D02*
G75*
G02*
X117755000Y-86600400I125000J0D01*
G01*
D12*
%TO.C,R2*%
X133477500Y-90657776D02*
X133477500Y-91167224D01*
X134522500Y-90657776D02*
X134522500Y-91167224D01*
D13*
%TO.C,IC2*%
X127755000Y-86600000D02*
G75*
G02*
X127505000Y-86600000I-125000J0D01*
G01*
X127505000Y-86600000D02*
G75*
G02*
X127755000Y-86600000I125000J0D01*
G01*
D12*
%TO.C,C8*%
X126653733Y-95290000D02*
X126946267Y-95290000D01*
X126653733Y-96310000D02*
X126946267Y-96310000D01*
%TO.C,R1*%
X135077500Y-90745276D02*
X135077500Y-91254724D01*
X136122500Y-90745276D02*
X136122500Y-91254724D01*
%TO.C,C3*%
X113515000Y-94263748D02*
X113515000Y-94786252D01*
X114985000Y-94263748D02*
X114985000Y-94786252D01*
%TO.C,C7*%
X123440000Y-94138748D02*
X123440000Y-94661252D01*
X124910000Y-94138748D02*
X124910000Y-94661252D01*
%TD*%
M02*
