%TF.GenerationSoftware,KiCad,Pcbnew,9.0.6*%
%TF.CreationDate,2025-12-12T15:58:06+01:00*%
%TF.ProjectId,nsm4202A_MAN3910,6e736d34-3230-4324-915f-4d414e333931,rev?*%
%TF.SameCoordinates,Original*%
%TF.FileFunction,Soldermask,Top*%
%TF.FilePolarity,Negative*%
%FSLAX46Y46*%
G04 Gerber Fmt 4.6, Leading zero omitted, Abs format (unit mm)*
G04 Created by KiCad (PCBNEW 9.0.6) date 2025-12-12 15:58:06*
%MOMM*%
%LPD*%
G01*
G04 APERTURE LIST*
%ADD10R,1.700000X1.700000*%
%ADD11C,1.700000*%
%ADD12R,1.200000X1.200000*%
%ADD13C,1.200000*%
G04 APERTURE END LIST*
D10*
%TO.C,J3*%
X104900000Y-76340000D03*
D11*
X107440000Y-76340000D03*
X109980000Y-76340000D03*
%TD*%
D10*
%TO.C,J1*%
X112500000Y-99200000D03*
D11*
X115040000Y-99200000D03*
X117580000Y-99200000D03*
X120120000Y-99200000D03*
X122660000Y-99200000D03*
X125200000Y-99200000D03*
X127740000Y-99200000D03*
%TD*%
D10*
%TO.C,J2*%
X132825000Y-76340000D03*
D11*
X135365000Y-76340000D03*
%TD*%
D12*
%TO.C,DS4*%
X131420000Y-79520400D03*
D13*
X131420000Y-82060400D03*
X131420000Y-84600400D03*
X131420000Y-87140400D03*
X131420000Y-89680400D03*
X131420000Y-92220400D03*
X131420000Y-94760400D03*
X139040000Y-94760400D03*
X139040000Y-92220400D03*
X139040000Y-89680400D03*
X139040000Y-87140400D03*
X139040000Y-84600400D03*
X139040000Y-82060400D03*
X139040000Y-79520400D03*
%TD*%
D12*
%TO.C,DS1*%
X101420000Y-79520400D03*
D13*
X101420000Y-82060400D03*
X101420000Y-84600400D03*
X101420000Y-87140400D03*
X101420000Y-89680400D03*
X101420000Y-92220400D03*
X101420000Y-94760400D03*
X109040000Y-94760400D03*
X109040000Y-92220400D03*
X109040000Y-89680400D03*
X109040000Y-87140400D03*
X109040000Y-84600400D03*
X109040000Y-82060400D03*
X109040000Y-79520400D03*
%TD*%
D12*
%TO.C,DS2*%
X111420000Y-79520400D03*
D13*
X111420000Y-82060400D03*
X111420000Y-84600400D03*
X111420000Y-87140400D03*
X111420000Y-89680400D03*
X111420000Y-92220400D03*
X111420000Y-94760400D03*
X119040000Y-94760400D03*
X119040000Y-92220400D03*
X119040000Y-89680400D03*
X119040000Y-87140400D03*
X119040000Y-84600400D03*
X119040000Y-82060400D03*
X119040000Y-79520400D03*
%TD*%
D12*
%TO.C,DS3*%
X121420000Y-79520400D03*
D13*
X121420000Y-82060400D03*
X121420000Y-84600400D03*
X121420000Y-87140400D03*
X121420000Y-89680400D03*
X121420000Y-92220400D03*
X121420000Y-94760400D03*
X129040000Y-94760400D03*
X129040000Y-92220400D03*
X129040000Y-89680400D03*
X129040000Y-87140400D03*
X129040000Y-84600400D03*
X129040000Y-82060400D03*
X129040000Y-79520400D03*
%TD*%
M02*
