M48
; DRILL file {KiCad 9.0.6} date 2025-12-12T15:57:29+0100
; FORMAT={-:-/ absolute / inch / decimal}
; #@! TF.CreationDate,2025-12-12T15:57:29+01:00
; #@! TF.GenerationSoftware,Kicad,Pcbnew,9.0.6
; #@! TF.FileFunction,Plated,1,4,PTH
FMAT,2
INCH
; #@! TA.AperFunction,Plated,PTH,ViaDrill
T1C0.0118
; #@! TA.AperFunction,Plated,PTH,ComponentDrill
T2C0.0315
; #@! TA.AperFunction,Plated,PTH,ComponentDrill
T3C0.0394
%
G90
G05
T1
X4.0665Y-3.3811
X4.0961Y-3.1988
X4.098Y-3.5378
X4.1461Y-3.326
X4.1461Y-3.6339
X4.1496Y-3.4937
X4.1535Y-3.2047
X4.1677Y-3.1346
X4.1803Y-3.0937
X4.1878Y-3.0634
X4.1969Y-3.2195
X4.1969Y-3.748
X4.1996Y-3.5969
X4.2299Y-3.3791
X4.3031Y-3.8374
X4.3482Y-3.4108
X4.4296Y-3.4164
X4.4311Y-3.6634
X4.4528Y-3.011
X4.4724Y-3.1693
X4.4852Y-3.6289
X4.4879Y-3.2239
X4.498Y-3.7406
X4.5114Y-3.463
X4.5126Y-3.0087
X4.5366Y-3.4882
X4.5383Y-3.8512
X4.5524Y-3.6293
X4.5531Y-3.2224
X4.5695Y-3.5211
X4.5714Y-3.688
X4.5807Y-3.011
X4.583Y-3.3002
X4.5943Y-3.6653
X4.6422Y-3.5783
X4.7008Y-3.7874
X4.7266Y-3.58
X4.7274Y-3.4685
X4.7283Y-3.3789
X4.7409Y-3.7874
X4.7558Y-3.5926
X4.806Y-3.5939
X4.8073Y-3.4944
X4.8217Y-3.3061
X4.8236Y-3.7874
X4.8533Y-3.4045
X4.8665Y-3.1638
X4.8752Y-3.6233
X4.8807Y-3.75
X4.9008Y-3.4587
X4.9035Y-3.1138
X4.9303Y-3.4882
X4.9357Y-3.2911
X4.952Y-3.0358
X4.9533Y-3.7154
X4.9565Y-3.4726
X4.9706Y-3.4466
X4.9827Y-3.6486
X4.9951Y-3.6801
X5.0006Y-3.6203
X5.1245Y-3.4848
X5.1756Y-3.8953
X5.2472Y-3.8787
X5.2579Y-3.4457
X5.2657Y-3.272
X5.2657Y-3.6841
X5.3031Y-3.8783
X5.3048Y-3.6994
X5.3071Y-3.407
X5.3317Y-3.2106
X5.338Y-3.3106
X5.3583Y-3.8776
X5.3713Y-3.6776
X5.3799Y-3.1197
X5.4063Y-3.4406
X5.4098Y-3.8776
X5.411Y-3.565
X5.465Y-3.8807
T2
X3.9929Y-3.1307
X3.9929Y-3.2307
X3.9929Y-3.3307
X3.9929Y-3.4307
X3.9929Y-3.5307
X3.9929Y-3.6307
X3.9929Y-3.7307
X4.2929Y-3.1307
X4.2929Y-3.2307
X4.2929Y-3.3307
X4.2929Y-3.4307
X4.2929Y-3.5307
X4.2929Y-3.6307
X4.2929Y-3.7307
X4.3866Y-3.1307
X4.3866Y-3.2307
X4.3866Y-3.3307
X4.3866Y-3.4307
X4.3866Y-3.5307
X4.3866Y-3.6307
X4.3866Y-3.7307
X4.6866Y-3.1307
X4.6866Y-3.2307
X4.6866Y-3.3307
X4.6866Y-3.4307
X4.6866Y-3.5307
X4.6866Y-3.6307
X4.6866Y-3.7307
X4.7803Y-3.1307
X4.7803Y-3.2307
X4.7803Y-3.3307
X4.7803Y-3.4307
X4.7803Y-3.5307
X4.7803Y-3.6307
X4.7803Y-3.7307
X5.0803Y-3.1307
X5.0803Y-3.2307
X5.0803Y-3.3307
X5.0803Y-3.4307
X5.0803Y-3.5307
X5.0803Y-3.6307
X5.0803Y-3.7307
X5.174Y-3.1307
X5.174Y-3.2307
X5.174Y-3.3307
X5.174Y-3.4307
X5.174Y-3.5307
X5.174Y-3.6307
X5.174Y-3.7307
X5.474Y-3.1307
X5.474Y-3.2307
X5.474Y-3.3307
X5.474Y-3.4307
X5.474Y-3.5307
X5.474Y-3.6307
X5.474Y-3.7307
T3
X4.1299Y-3.0055
X4.2299Y-3.0055
X4.3299Y-3.0055
X4.4291Y-3.9055
X4.5291Y-3.9055
X4.6291Y-3.9055
X4.7291Y-3.9055
X4.8291Y-3.9055
X4.9291Y-3.9055
X5.0291Y-3.9055
X5.2293Y-3.0055
X5.3293Y-3.0055
M30
