%TF.GenerationSoftware,KiCad,Pcbnew,9.0.6*%
%TF.CreationDate,2025-12-12T15:58:06+01:00*%
%TF.ProjectId,nsm4202A_MAN3910,6e736d34-3230-4324-915f-4d414e333931,rev?*%
%TF.SameCoordinates,Original*%
%TF.FileFunction,Soldermask,Bot*%
%TF.FilePolarity,Negative*%
%FSLAX46Y46*%
G04 Gerber Fmt 4.6, Leading zero omitted, Abs format (unit mm)*
G04 Created by KiCad (PCBNEW 9.0.6) date 2025-12-12 15:58:06*
%MOMM*%
%LPD*%
G01*
G04 APERTURE LIST*
G04 Aperture macros list*
%AMRoundRect*
0 Rectangle with rounded corners*
0 $1 Rounding radius*
0 $2 $3 $4 $5 $6 $7 $8 $9 X,Y pos of 4 corners*
0 Add a 4 corners polygon primitive as box body*
4,1,4,$2,$3,$4,$5,$6,$7,$8,$9,$2,$3,0*
0 Add four circle primitives for the rounded corners*
1,1,$1+$1,$2,$3*
1,1,$1+$1,$4,$5*
1,1,$1+$1,$6,$7*
1,1,$1+$1,$8,$9*
0 Add four rect primitives between the rounded corners*
20,1,$1+$1,$2,$3,$4,$5,0*
20,1,$1+$1,$4,$5,$6,$7,0*
20,1,$1+$1,$6,$7,$8,$9,0*
20,1,$1+$1,$8,$9,$2,$3,0*%
G04 Aperture macros list end*
%ADD10R,1.700000X1.700000*%
%ADD11C,1.700000*%
%ADD12R,1.200000X1.200000*%
%ADD13C,1.200000*%
%ADD14RoundRect,0.237500X0.300000X0.237500X-0.300000X0.237500X-0.300000X-0.237500X0.300000X-0.237500X0*%
%ADD15RoundRect,0.237500X0.237500X-0.300000X0.237500X0.300000X-0.237500X0.300000X-0.237500X-0.300000X0*%
%ADD16R,0.800000X0.300000*%
%ADD17R,0.300000X0.800000*%
%ADD18R,2.800000X2.800000*%
%ADD19RoundRect,0.237500X-0.237500X0.250000X-0.237500X-0.250000X0.237500X-0.250000X0.237500X0.250000X0*%
%ADD20RoundRect,0.237500X-0.300000X-0.237500X0.300000X-0.237500X0.300000X0.237500X-0.300000X0.237500X0*%
%ADD21RoundRect,0.250000X-0.475000X0.250000X-0.475000X-0.250000X0.475000X-0.250000X0.475000X0.250000X0*%
G04 APERTURE END LIST*
D10*
%TO.C,J3*%
X104900000Y-76340000D03*
D11*
X107440000Y-76340000D03*
X109980000Y-76340000D03*
%TD*%
D10*
%TO.C,J1*%
X112500000Y-99200000D03*
D11*
X115040000Y-99200000D03*
X117580000Y-99200000D03*
X120120000Y-99200000D03*
X122660000Y-99200000D03*
X125200000Y-99200000D03*
X127740000Y-99200000D03*
%TD*%
D10*
%TO.C,J2*%
X132825000Y-76340000D03*
D11*
X135365000Y-76340000D03*
%TD*%
D12*
%TO.C,DS4*%
X131420000Y-79520400D03*
D13*
X131420000Y-82060400D03*
X131420000Y-84600400D03*
X131420000Y-87140400D03*
X131420000Y-89680400D03*
X131420000Y-92220400D03*
X131420000Y-94760400D03*
X139040000Y-94760400D03*
X139040000Y-92220400D03*
X139040000Y-89680400D03*
X139040000Y-87140400D03*
X139040000Y-84600400D03*
X139040000Y-82060400D03*
X139040000Y-79520400D03*
%TD*%
D12*
%TO.C,DS1*%
X101420000Y-79520400D03*
D13*
X101420000Y-82060400D03*
X101420000Y-84600400D03*
X101420000Y-87140400D03*
X101420000Y-89680400D03*
X101420000Y-92220400D03*
X101420000Y-94760400D03*
X109040000Y-94760400D03*
X109040000Y-92220400D03*
X109040000Y-89680400D03*
X109040000Y-87140400D03*
X109040000Y-84600400D03*
X109040000Y-82060400D03*
X109040000Y-79520400D03*
%TD*%
D12*
%TO.C,DS2*%
X111420000Y-79520400D03*
D13*
X111420000Y-82060400D03*
X111420000Y-84600400D03*
X111420000Y-87140400D03*
X111420000Y-89680400D03*
X111420000Y-92220400D03*
X111420000Y-94760400D03*
X119040000Y-94760400D03*
X119040000Y-92220400D03*
X119040000Y-89680400D03*
X119040000Y-87140400D03*
X119040000Y-84600400D03*
X119040000Y-82060400D03*
X119040000Y-79520400D03*
%TD*%
D12*
%TO.C,DS3*%
X121420000Y-79520400D03*
D13*
X121420000Y-82060400D03*
X121420000Y-84600400D03*
X121420000Y-87140400D03*
X121420000Y-89680400D03*
X121420000Y-92220400D03*
X121420000Y-94760400D03*
X129040000Y-94760400D03*
X129040000Y-92220400D03*
X129040000Y-89680400D03*
X129040000Y-87140400D03*
X129040000Y-84600400D03*
X129040000Y-82060400D03*
X129040000Y-79520400D03*
%TD*%
D14*
%TO.C,C1*%
X112462500Y-96600000D03*
X110737500Y-96600000D03*
%TD*%
D15*
%TO.C,C4*%
X134800000Y-88262500D03*
X134800000Y-86537500D03*
%TD*%
D16*
%TO.C,IC1*%
X117230000Y-87350400D03*
X117230000Y-87850399D03*
X117230000Y-88350400D03*
X117230000Y-88850400D03*
X117230000Y-89350401D03*
X117230000Y-89850400D03*
D17*
X116480000Y-90600400D03*
X115980001Y-90600400D03*
X115480000Y-90600400D03*
X114980000Y-90600400D03*
X114479999Y-90600400D03*
X113980000Y-90600400D03*
D16*
X113230000Y-89850400D03*
X113230000Y-89350401D03*
X113230000Y-88850400D03*
X113230000Y-88350400D03*
X113230000Y-87850399D03*
X113230000Y-87350400D03*
D17*
X113980000Y-86600400D03*
X114479999Y-86600400D03*
X114980000Y-86600400D03*
X115480000Y-86600400D03*
X115980001Y-86600400D03*
X116480000Y-86600400D03*
D18*
X115230000Y-88600400D03*
%TD*%
D19*
%TO.C,R2*%
X134000000Y-90000000D03*
X134000000Y-91825000D03*
%TD*%
D16*
%TO.C,IC2*%
X127230000Y-87350000D03*
X127230000Y-87849999D03*
X127230000Y-88350000D03*
X127230000Y-88850000D03*
X127230000Y-89350001D03*
X127230000Y-89850000D03*
D17*
X126480000Y-90600000D03*
X125980001Y-90600000D03*
X125480000Y-90600000D03*
X124980000Y-90600000D03*
X124479999Y-90600000D03*
X123980000Y-90600000D03*
D16*
X123230000Y-89850000D03*
X123230000Y-89350001D03*
X123230000Y-88850000D03*
X123230000Y-88350000D03*
X123230000Y-87849999D03*
X123230000Y-87350000D03*
D17*
X123980000Y-86600000D03*
X124479999Y-86600000D03*
X124980000Y-86600000D03*
X125480000Y-86600000D03*
X125980001Y-86600000D03*
X126480000Y-86600000D03*
D18*
X125230000Y-88600000D03*
%TD*%
D20*
%TO.C,C8*%
X125937500Y-95800000D03*
X127662500Y-95800000D03*
%TD*%
D19*
%TO.C,R1*%
X135600000Y-90087500D03*
X135600000Y-91912500D03*
%TD*%
D21*
%TO.C,C3*%
X114250000Y-93575000D03*
X114250000Y-95475000D03*
%TD*%
%TO.C,C7*%
X124175000Y-93450000D03*
X124175000Y-95350000D03*
%TD*%
M02*
